<svg width="47" height="40" viewBox="0 0 47 40" fill="none" xmlns="http://www.w3.org/2000/svg">
<path d="M0 38.0634V1.93658C0 1.23594 0.297051 0.699509 0.891152 0.327293C1.48525 -0.0449226 2.11236 -0.0996603 2.77247 0.16308L45.8118 18.1608C46.6039 18.5111 47 19.1242 47 20C47 20.8758 46.6039 21.4889 45.8118 21.8392L2.77247 39.8369C2.11236 40.0997 1.48525 40.0449 0.891152 39.6727C0.297051 39.3005 0 38.7641 0 38.0634ZM3.96067 34.9105L39.8708 20L3.96067 4.89241V15.9275L19.9354 20L3.96067 23.9411V34.9105ZM3.96067 20V4.89241V15.9275V23.9411V34.9105V20Z" fill="#929292"/>
</svg>
