<svg width="32" height="16" viewBox="0 0 32 16" fill="none" xmlns="http://www.w3.org/2000/svg">
<mask id="path-1-inside-1_63_37" fill="white">
<path fill-rule="evenodd" clip-rule="evenodd" d="M0.614171 0.52241C-0.204724 1.21658 -0.204724 2.33575 0.614171 3.02991L14.502 14.8024C15.1537 15.3549 16.2066 15.3549 16.8584 14.8024L30.7462 3.02991C31.5651 2.33575 31.5651 1.21658 30.7462 0.522412C29.9273 -0.171755 28.607 -0.171755 27.7881 0.522412L15.6718 10.7791L3.55551 0.508247C2.75333 -0.171754 1.41635 -0.171757 0.614171 0.52241Z"/>
</mask>
<path fill-rule="evenodd" clip-rule="evenodd" d="M0.614171 0.52241C-0.204724 1.21658 -0.204724 2.33575 0.614171 3.02991L14.502 14.8024C15.1537 15.3549 16.2066 15.3549 16.8584 14.8024L30.7462 3.02991C31.5651 2.33575 31.5651 1.21658 30.7462 0.522412C29.9273 -0.171755 28.607 -0.171755 27.7881 0.522412L15.6718 10.7791L3.55551 0.508247C2.75333 -0.171754 1.41635 -0.171757 0.614171 0.52241Z" fill="#E5E5E5"/>
<path d="M0.614171 0.52241L7.72703 8.91331L7.76977 8.87708L7.81214 8.84042L0.614171 0.52241ZM0.614171 3.02991L7.72703 -5.36099L0.614171 3.02991ZM14.502 14.8024L7.38911 23.1933L14.502 14.8024ZM16.8584 14.8024L9.74552 6.41152L9.74552 6.41152L16.8584 14.8024ZM30.7462 3.02991L37.859 11.4208L37.859 11.4208L30.7462 3.02991ZM27.7881 0.522412L34.8953 8.91816L34.901 8.91331L27.7881 0.522412ZM15.6718 10.7791L8.55896 19.17L15.6669 25.1953L22.779 19.1748L15.6718 10.7791ZM3.55551 0.508247L-3.55735 8.89915L-3.55735 8.89915L3.55551 0.508247ZM-6.49869 -7.86849C-9.20539 -5.57406 -11 -2.12373 -11 1.77616C-11 5.67606 -9.20539 9.12638 -6.49869 11.4208L7.72703 -5.36099C9.61483 -3.76072 11 -1.21707 11 1.77616C11 4.76939 9.61483 7.31305 7.72703 8.91331L-6.49869 -7.86849ZM-6.49869 11.4208L7.38911 23.1933L21.6148 6.41152L7.72703 -5.36099L-6.49869 11.4208ZM7.38911 23.1933C12.1448 27.2246 19.2156 27.2246 23.9712 23.1933L9.74552 6.41152C11.6378 4.80748 13.8209 4.2168 15.6802 4.2168C17.5395 4.2168 19.7226 4.80748 21.6148 6.41152L7.38911 23.1933ZM23.9712 23.1933L37.859 11.4208L23.6333 -5.36099L9.74552 6.41152L23.9712 23.1933ZM37.859 11.4208C40.5657 9.12638 42.3603 5.67606 42.3603 1.77616C42.3603 -2.12373 40.5657 -5.57405 37.859 -7.86849L23.6333 8.91331C21.7455 7.31305 20.3603 4.76939 20.3603 1.77616C20.3603 -1.21706 21.7455 -3.76072 23.6333 -5.36099L37.859 11.4208ZM37.859 -7.86849C32.9363 -12.0415 25.598 -12.0415 20.6753 -7.86849L34.901 8.91331C33.0956 10.4437 31.0227 11.0018 29.2672 11.0018C27.5116 11.0018 25.4387 10.4437 23.6333 8.91331L37.859 -7.86849ZM20.681 -7.87333L8.56467 2.38334L22.779 19.1748L34.8953 8.91815L20.681 -7.87333ZM22.7847 2.38818L10.6684 -7.88265L-3.55735 8.89915L8.55896 19.17L22.7847 2.38818ZM10.6684 -7.88265C5.75626 -12.0466 -1.6553 -12.0605 -6.5838 -7.7956L7.81214 8.84042C5.94559 10.4556 3.82497 10.9943 2.12125 11C0.422469 11.0056 -1.68706 10.4846 -3.55735 8.89915L10.6684 -7.88265Z" fill="#929292" mask="url(#path-1-inside-1_63_37)"/>
</svg>
