<svg width="37" height="37" viewBox="0 0 37 37" fill="none" xmlns="http://www.w3.org/2000/svg">
<path d="M3 33.6257H5.2L29.45 9.37571L28.35 8.27571L27.25 7.17571L3 31.4257V33.6257ZM0 36.6257V30.2257L29.4 0.825714C29.9667 0.259047 30.675 -0.0159524 31.525 0.000714286C32.375 0.017381 33.0833 0.309048 33.65 0.875714L35.8 3.02571C36.3667 3.59238 36.65 4.29238 36.65 5.12571C36.65 5.95905 36.3667 6.65905 35.8 7.22571L6.4 36.6257H0ZM33.5 5.07571L31.45 3.02571L33.5 5.07571ZM29.45 9.37571L28.35 8.27571L27.25 7.17571L29.45 9.37571Z" fill="#929292"/>
</svg>
