<svg width="20" height="20" viewBox="0 0 35 39" fill="none" xmlns="http://www.w3.org/2000/svg">
<path d="M15.2153 31.7445L8.50694 25.0848L10.5486 23.0431L15.2153 27.6125L24.1597 18.6681L26.2014 20.7584L15.2153 31.7445ZM2.91667 38.9389C2.13889 38.9389 1.45833 38.6473 0.875 38.0639C0.291667 37.4806 0 36.8 0 36.0223V5.88338C0 5.1056 0.291667 4.42505 0.875 3.84172C1.45833 3.25838 2.13889 2.96672 2.91667 2.96672H6.07639V0.0500488H9.23611V2.96672H25.7639V0.0500488H28.9236V2.96672H32.0833C32.8611 2.96672 33.5417 3.25838 34.125 3.84172C34.7083 4.42505 35 5.1056 35 5.88338V36.0223C35 36.8 34.7083 37.4806 34.125 38.0639C33.5417 38.6473 32.8611 38.9389 32.0833 38.9389H2.91667ZM2.91667 36.0223H32.0833V15.1195H2.91667V36.0223ZM2.91667 12.2028H32.0833V5.88338H2.91667V12.2028ZM2.91667 12.2028V5.88338V12.2028Z" fill="#229F94"/>
</svg>
