<svg width="20" height="20" viewBox="0 0 40 32" fill="none" xmlns="http://www.w3.org/2000/svg">
<path d="M0 31.05V26.35C0 25.1833 0.271493 24.125 0.81448 23.175C1.35747 22.225 2.11161 21.5167 3.07692 21.05C5.27904 19.9833 7.26244 19.2167 9.02715 18.75C10.7919 18.2833 12.6094 18.05 14.4796 18.05C16.3499 18.05 18.1599 18.2833 19.9095 18.75C21.6591 19.2167 23.635 19.9833 25.8371 21.05C26.8024 21.5167 27.5641 22.225 28.1222 23.175C28.6802 24.125 28.9593 25.1833 28.9593 26.35V31.05H0ZM26.4253 17.9C28.5068 18.1667 30.4676 18.5583 32.3077 19.075C34.1478 19.5917 35.641 20.1833 36.7873 20.85C37.7828 21.4833 38.5671 22.2667 39.1403 23.2C39.7134 24.1333 40 25.1833 40 26.35V31.05H31.6742V26.35C31.6742 24.25 31.1916 22.525 30.2262 21.175C29.2609 19.825 27.994 18.7333 26.4253 17.9ZM14.4796 15C12.4887 15 10.8597 14.3 9.59276 12.9C8.32579 11.5 7.69231 9.7 7.69231 7.5C7.69231 5.3 8.32579 3.5 9.59276 2.1C10.8597 0.7 12.4887 0 14.4796 0C16.4706 0 18.0995 0.7 19.3665 2.1C20.6335 3.5 21.267 5.3 21.267 7.5C21.267 9.7 20.6335 11.5 19.3665 12.9C18.0995 14.3 16.4706 15 14.4796 15ZM30.7692 7.5C30.7692 9.7 30.1357 11.5 28.8688 12.9C27.6018 14.3 25.9729 15 23.9819 15C23.6501 15 23.2805 14.975 22.8733 14.925C22.4661 14.875 22.0965 14.7833 21.7647 14.65C22.4887 13.8167 23.0392 12.7917 23.4163 11.575C23.7934 10.3583 23.9819 9 23.9819 7.5C23.9819 6 23.7934 4.675 23.4163 3.525C23.0392 2.375 22.4887 1.31667 21.7647 0.35C22.0965 0.25 22.4661 0.166667 22.8733 0.1C23.2805 0.0333337 23.6501 0 23.9819 0C25.9729 0 27.6018 0.7 28.8688 2.1C30.1357 3.5 30.7692 5.3 30.7692 7.5ZM2.71493 28.05H26.2443V26.35C26.2443 25.8167 26.1011 25.3 25.8145 24.8C25.5279 24.3 25.1735 23.95 24.7511 23.75C22.5792 22.6833 20.7542 21.9667 19.276 21.6C17.7979 21.2333 16.1991 21.05 14.4796 21.05C12.7602 21.05 11.1538 21.2333 9.66063 21.6C8.16742 21.9667 6.33484 22.6833 4.1629 23.75C3.74057 23.95 3.39367 24.3 3.12217 24.8C2.85068 25.3 2.71493 25.8167 2.71493 26.35V28.05ZM14.4796 12C15.6561 12 16.629 11.575 17.3982 10.725C18.1674 9.875 18.552 8.8 18.552 7.5C18.552 6.2 18.1674 5.125 17.3982 4.275C16.629 3.425 15.6561 3 14.4796 3C13.3032 3 12.3303 3.425 11.5611 4.275C10.7919 5.125 10.4072 6.2 10.4072 7.5C10.4072 8.8 10.7919 9.875 11.5611 10.725C12.3303 11.575 13.3032 12 14.4796 12Z" fill="#229F94"/>
</svg>
