<svg width="28" height="25" viewBox="0 0 28 25" fill="none" xmlns="http://www.w3.org/2000/svg">
<path d="M19.7548 0C17.3842 0 15.109 1.10354 13.624 2.84741C12.139 1.10354 9.86377 0 7.4932 0C3.29701 0 0 3.297 0 7.49319C0 12.6431 4.63216 16.8392 11.6485 23.2153L13.624 25L15.5995 23.2016C22.6158 16.8392 27.248 12.6431 27.248 7.49319C27.248 3.297 23.951 0 19.7548 0ZM12.357 19.5L15.5995 17.5L24.5232 4C18.0382 -1.87193 2.7248 11.4305 2.7248 7.49319C2.7248 4.76839 2.77521 11.1287 5.50001 11.1287C7.5981 11.1287 11.6349 4.07357 12.357 5.94005H14.9046C15.6131 4.07357 17.6567 2.7248 19.7548 2.7248C22.4796 2.7248 2 5.2752 2 8C2 11.9373 18.842 13.6281 12.357 19.5Z" fill="#FF0000" fill-opacity="0.65"/>
</svg>
