<svg width="30" height="30" viewBox="0 0 30 30" fill="none" xmlns="http://www.w3.org/2000/svg">
<path fill-rule="evenodd" clip-rule="evenodd" d="M14.418 2.17163C7.69235 2.17163 2.22066 7.52107 2.22066 14.0982C2.22066 20.6754 7.69235 26.0262 14.418 26.0262C21.1421 26.0262 26.6138 20.6754 26.6138 14.0982C26.6138 7.52107 21.1421 2.17163 14.418 2.17163ZM14.418 28.1979C6.46803 28.1979 0 21.8726 0 14.0982C0 6.32378 6.46803 0 14.418 0C22.3679 0 28.8345 6.32378 28.8345 14.0982C28.8345 21.8726 22.3679 28.1979 14.418 28.1979Z" fill="#DA5443"/>
<mask id="mask0_32_126" style="mask-type:alpha" maskUnits="userSpaceOnUse" x="22" y="22" width="8" height="8">
<path fill-rule="evenodd" clip-rule="evenodd" d="M22.5623 22.7399H30V30H22.5623V22.7399Z" fill="white"/>
</mask>
<g mask="url(#mask0_32_126)">
<path fill-rule="evenodd" clip-rule="evenodd" d="M28.89 30C28.6073 30 28.323 29.8943 28.1054 29.6829L22.8883 24.5955C22.4546 24.1713 22.4531 23.4837 22.8868 23.0595C23.3191 22.6324 24.0223 22.6353 24.4576 23.0566L29.6746 28.1454C30.1084 28.5696 30.1099 29.2558 29.6761 29.68C29.46 29.8943 29.1743 30 28.89 30Z" fill="#DA5443"/>
</g>
</svg>
