<svg width="22" height="40" viewBox="0 0 22 40" fill="none" xmlns="http://www.w3.org/2000/svg">
<path d="M0 10.9C0 7.86667 1.075 5.29167 3.225 3.175C5.375 1.05833 7.96667 0 11 0C14.0333 0 16.625 1.04167 18.775 3.125C20.925 5.20833 22 7.76667 22 10.8L22 32.3C22 34.4333 21.2417 36.25 19.725 37.75C18.2083 39.25 16.3833 40 14.25 40C12.1167 40 10.2917 39.25 8.775 37.75C7.25833 36.25 6.5 34.4333 6.5 32.3L6.5 12.55C6.5 11.2833 6.93333 10.2083 7.8 9.325C8.66667 8.44167 9.73333 8 11 8C12.2667 8 13.3333 8.45833 14.2 9.375C15.0667 10.2917 15.5 11.3833 15.5 12.65L15.5 32.3H13.5L13.5 12.6C13.5 11.9 13.2583 11.2917 12.775 10.775C12.2917 10.2583 11.7 10 11 10C10.3 10 9.70833 10.25 9.225 10.75C8.74167 11.25 8.5 11.85 8.5 12.55L8.5 32.3C8.5 33.9 9.05833 35.25 10.175 36.35C11.2917 37.45 12.65 38 14.25 38C15.85 38 17.2083 37.45 18.325 36.35C19.4417 35.25 20 33.9 20 32.3L20 10.7C20 8.26667 19.1167 6.20833 17.35 4.525C15.5833 2.84167 13.4667 2 11 2C8.5 2 6.375 2.85833 4.625 4.575C2.875 6.29167 2 8.38333 2 10.85L2 32.3H0L0 10.9Z" fill="#929292"/>
</svg>
